<svg width="32" height="32" viewBox="0 0 32 32" fill="none" xmlns="http://www.w3.org/2000/svg">
  <circle cx="16" cy="16" r="16" fill="#25D366"/>
  <path d="M8 24l2.5-1.5c1.5-.9 3.2-1.4 5-1.4 4.4 0 8 3.6 8 8s-3.6 8-8 8-8-3.6-8-8c0-1.8.5-3.5 1.4-5L8 24z" fill="none"/>
  <path d="M16 6c5.5 0 10 4.5 10 10s-4.5 10-10 10c-1.8 0-3.5-.5-5-1.4L6 24l1.4-5c-.9-1.5-1.4-3.2-1.4-5 0-5.5 4.5-10 10-10z" fill="none"/>
  <path d="M16 8c-4.4 0-8 3.6-8 8 0 1.4.4 2.8 1 4l-1 3 3-1c1.2.6 2.6 1 4 1 4.4 0 8-3.6 8-8s-3.6-8-8-8z" fill="white"/>
  <path d="M12 14c-.3 0-.5.2-.5.5 0 .3.2.5.5.5s.5-.2.5-.5-.2-.5-.5-.5z" fill="#25D366"/>
  <path d="M20 14c-.3 0-.5.2-.5.5 0 .3.2.5.5.5s.5-.2.5-.5-.2-.5-.5-.5z" fill="#25D366"/>
  <path d="M16 18c-1.1 0-2.1.4-2.8 1.1-.7.7-1.1 1.7-1.1 2.8 0 1.1.4 2.1 1.1 2.8.7.7 1.7 1.1 2.8 1.1s2.1-.4 2.8-1.1c.7-.7 1.1-1.7 1.1-2.8 0-1.1-.4-2.1-1.1-2.8-.7-.7-1.7-1.1-2.8-1.1z" fill="#25D366"/>
</svg> 